<svg width="14" height="14" viewBox="0 0 14 14" fill="none" xmlns="http://www.w3.org/2000/svg">
<circle cx="7" cy="7" r="7" fill="#332D41"/>
<path d="M7.2 8.608H6.6C6.568 8.272 6.576 7.99467 6.624 7.776C6.672 7.55733 6.73867 7.37333 6.824 7.224C6.91467 7.06933 7.016 6.93867 7.128 6.832C7.24 6.72 7.34667 6.60533 7.448 6.488C7.54933 6.37067 7.632 6.24 7.696 6.096C7.76533 5.952 7.8 5.768 7.8 5.544C7.8 5.40533 7.77867 5.27467 7.736 5.152C7.69867 5.02933 7.64 4.92267 7.56 4.832C7.48533 4.74133 7.392 4.66933 7.28 4.616C7.17333 4.55733 7.048 4.528 6.904 4.528C6.80267 4.528 6.69867 4.54667 6.592 4.584C6.48533 4.616 6.384 4.67733 6.288 4.768C6.19733 4.85333 6.12 4.97067 6.056 5.12C5.992 5.264 5.952 5.448 5.936 5.672H5.32C5.34133 5.31467 5.408 5.024 5.52 4.8C5.63733 4.57067 5.776 4.392 5.936 4.264C6.096 4.13067 6.26933 4.04 6.456 3.992C6.64267 3.93867 6.81867 3.912 6.984 3.912C7.208 3.912 7.41067 3.95467 7.592 4.04C7.77333 4.12 7.928 4.232 8.056 4.376C8.184 4.52 8.28 4.688 8.344 4.88C8.41333 5.072 8.448 5.27733 8.448 5.496C8.448 5.75733 8.41067 5.976 8.336 6.152C8.26667 6.328 8.18133 6.48533 8.08 6.624C7.97867 6.75733 7.86933 6.88267 7.752 7C7.63467 7.11733 7.528 7.248 7.432 7.392C7.34133 7.53067 7.272 7.696 7.224 7.888C7.176 8.08 7.168 8.32 7.2 8.608ZM7.248 9.352V10.104H6.52V9.352H7.248Z" fill="#625B71"/>
</svg>
